<svg width="134" height="134" viewBox="0 0 134 134" fill="none" xmlns="http://www.w3.org/2000/svg">
<path d="M67.332 89.9997L74.332 89.9997C74.332 86.1337 71.198 82.9997 67.332 82.9997V89.9997ZM67.332 90.6663L67.3303 97.6663C69.1871 97.6668 70.968 96.9295 72.2812 95.6167C73.5943 94.3039 74.332 92.5232 74.332 90.6663L67.332 90.6663ZM66.668 90.6662H59.668C59.668 94.5315 62.8009 97.6652 66.6662 97.6662L66.668 90.6662ZM66.668 89.9997V82.9997C62.802 82.9997 59.668 86.1337 59.668 89.9997H66.668ZM74 43.333C74 39.467 70.866 36.333 67 36.333C63.134 36.333 60 39.467 60 43.333H74ZM60 69.9997C60 73.8657 63.134 76.9997 67 76.9997C70.866 76.9997 74 73.8657 74 69.9997H60ZM67 120C37.7289 120 14 96.2711 14 67H0C0 104.003 29.9969 134 67 134V120ZM14 67C14 37.7289 37.7289 14 67 14V0C29.9969 0 0 29.9969 0 67H14ZM67 14C96.2711 14 120 37.7289 120 67H134C134 29.9969 104.003 0 67 0V14ZM120 67C120 96.2711 96.2711 120 67 120V134C104.003 134 134 104.003 134 67H120ZM60.332 89.9997V90.6663L74.332 90.6663V89.9997L60.332 89.9997ZM67.3338 83.6663L66.6697 83.6662L66.6662 97.6662L67.3303 97.6663L67.3338 83.6663ZM73.668 90.6662V89.9997L59.668 89.9997V90.6662L73.668 90.6662ZM66.668 96.9997H67.332V82.9997H66.668V96.9997ZM60 43.333V69.9997H74L74 43.333H60Z" fill="#00979B"/>
</svg>
